# xmcd
#
# Track frame offsets: 
#        150
#        19575
#        39415
#        72825
#
# Disc length: 1268 seconds
#
# Revision: 0
# Processed by: cddbd v1.5.2PL0 Copyright (c) Steve Scherf et al.
# Submitted via: ExactAudioCopy v0.95b4
#
DISCID=2804f204
DTITLE=Barbara Feltus - You Make Me Feel Good (Singel Version)
DYEAR=1993
DGENRE=Pop
TTITLE0=You Make Me Feel Good (Singel Version)
TTITLE1=You Make Me Feel Good (Dud Instrumental Version)
TTITLE2=You Make Me Feel Good (Maxi Version)
TTITLE3=You Make Me Feel Good (Late Night Mix)
EXTD=
EXTT0=
EXTT1=
EXTT2=
EXTT3=
PLAYORDER=
